inDegrees=no
num_controls=7
num_derivatives=13
num_iterations=134
num_multipliers=7
num_parameters=0
num_slacks=7
num_states=26
objective=0.516807
objective_accelerations=0.039278
objective_balance=0.002224
objective_effort=0.043799
objective_height=0.419891
objective_ligament=0.011615
solver_duration=1773.153885
status=Solve_Succeeded
success=true
DataType=double
version=3
OpenSimVersion=4.5
endheader
time	/jointset/ground_pelvis/pelvis_tilt/value	/jointset/ground_pelvis/pelvis_tx/value	/jointset/ground_pelvis/pelvis_ty/value	/jointset/hip_l/hip_flexion_l/value	/jointset/hip_l/hip_adduction_l/value	/jointset/hip_l/hip_rotation_l/value	/jointset/back/lumbar_extension/value	/jointset/patellofemoral_l/patellar_flexion_l/value	/jointset/knee_l/knee_flexion_l/value	/jointset/knee_l/knee_adduction_l/value	/jointset/knee_l/knee_rotation_l/value	/jointset/ankle_l/ankle_angle_l/value	/jointset/subtalar_l/subtalar_angle_l/value	/jointset/ground_pelvis/pelvis_tilt/speed	/jointset/ground_pelvis/pelvis_tx/speed	/jointset/ground_pelvis/pelvis_ty/speed	/jointset/hip_l/hip_flexion_l/speed	/jointset/hip_l/hip_adduction_l/speed	/jointset/hip_l/hip_rotation_l/speed	/jointset/back/lumbar_extension/speed	/jointset/patellofemoral_l/patellar_flexion_l/speed	/jointset/knee_l/knee_flexion_l/speed	/jointset/knee_l/knee_adduction_l/speed	/jointset/knee_l/knee_rotation_l/speed	/jointset/ankle_l/ankle_angle_l/speed	/jointset/subtalar_l/subtalar_angle_l/speed	/forceset/tau_hip_flexion_l	/forceset/tau_hip_adduction_l	/forceset/tau_hip_rotation_l	/forceset/tau_knee_flexion_l	/forceset/tau_ankle_angle_l	/forceset/tau_subtalar_angle_l	/forceset/tau_lumbar_extension	lambda_cid13_p0	lambda_cid13_p1	lambda_cid13_p2	lambda_cid13_p3	lambda_cid13_p4	lambda_cid13_p5	lambda_cid14_p0	/jointset/ground_pelvis/pelvis_tilt/accel	/jointset/ground_pelvis/pelvis_tx/accel	/jointset/ground_pelvis/pelvis_ty/accel	/jointset/hip_l/hip_flexion_l/accel	/jointset/hip_l/hip_adduction_l/accel	/jointset/hip_l/hip_rotation_l/accel	/jointset/back/lumbar_extension/accel	/jointset/patellofemoral_l/patellar_flexion_l/accel	/jointset/knee_l/knee_flexion_l/accel	/jointset/knee_l/knee_adduction_l/accel	/jointset/knee_l/knee_rotation_l/accel	/jointset/ankle_l/ankle_angle_l/accel	/jointset/subtalar_l/subtalar_angle_l/accel	gamma_cid13_p0	gamma_cid13_p1	gamma_cid13_p2	gamma_cid13_p3	gamma_cid13_p4	gamma_cid13_p5	gamma_cid14_p0
0	-0.03682207085328735	0.05667713318085699	0.9203415977875403	0.3085816938045678	-0.295639831982057	-0.3015958585648043	-0.3879492264334186	0.2499269421184915	0.2499269421184919	-0.1745329137278206	-0.1745214890214259	-0.0008036623358878681	0.0004381219279817205	0	0	0	0	0	0	0	0	0	0	0	0	0	0.06591974115389963	-0.03373695238125126	-0.01792825342312195	-0.2256809913868704	0.1551535618752707	-0.01541754610966036	0.005365617888163953	5.747228770809434	2.784342943592057	2.420228423070585	24.13755542828492	-627.053202707538	-69.64907342507955	-23.19656970311273	-1.358102006805997	-2.288055020679335	-0.8609065712805015	8.913583038653609	-0.5860926178424342	2.644729145242972	-7.237691184858834	7.473288848824545	7.473288848824242	1.174642849187099	-0.05916155706829938	0.3404710446629268	-0.5222697064991633	2.480759606702948e-08	1.329811756561108e-07	4.000851435335679e-08	-3.643588738844009e-08	2.097204608636472e-07	4.925446778215456e-08	3.111738472590092e-09
0.01	-0.0368860971680439	0.05656588712270345	0.9202997554456938	0.3090139998086363	-0.295668943503669	-0.3014637184577696	-0.3883054714095226	0.250292176579938	0.2502921765799361	-0.1744767204105188	-0.1745217768599488	-0.0007858961110116032	0.0004124664475475724	-0.01272081988274796	-0.02195240648811079	-0.008305773543148527	0.0857454167004917	-0.005751894846229035	0.0262541955723136	-0.07036633107099982	0.07262590938787875	0.07262590938787787	0.01124264140607482	-5.051439573612148e-05	0.00376853687400883	-0.00498169069137664	0.05901738686996393	-0.04156002629224018	-0.01748539386015778	-0.223626194239877	0.1546460834404895	-0.005289290306239562	0.01311439007095009	5.823609699579231	-1.529155457244799	2.995319748858083	20.5635119432166	-631.5382158937248	-77.99798953079866	-23.20076486932646	-1.21641432998792	-2.104319978642289	-0.8059665778135598	8.297648824051015	-0.5592012205441245	2.58969039001677	-6.80370444575588	7.094093926243958	7.09409392624402	1.099695728371996	0.02306497125167074	0.4273449996215251	-0.4637343162527777	-3.695170482398732e-09	1.112155948108121e-07	7.683129653199243e-08	-1.15412398286345e-09	5.448623758657451e-08	7.046643701244434e-09	-8.225351750722534e-10
0.02	-0.03707480015182365	0.05624401969651577	0.9201767446020194	0.3102822855473708	-0.2957534666342496	-0.3010742512696536	-0.3893388997718438	0.2513710405237554	0.2513710405237553	-0.1743079764907462	-0.1745223575720172	-0.0007239845192249297	0.0003414709470404845	-0.02493533380464499	-0.04212427360682852	-0.01623370036556082	0.1671959469331467	-0.01108232179369779	0.05146541621627559	-0.1354366772434137	0.142725896474734	0.1427258964747338	0.02251012049432243	-5.857470835414636e-05	0.008829073382084173	-0.009068004014587823	0.0521150325860299	-0.04938310020322808	-0.01704253429716966	-0.2215713970928866	0.1541386050057081	0.004838965497181955	0.02086316225373717	5.95744893847302	-5.850656342142223	3.569335788681909	16.94866739070683	-635.1306458245853	-86.27370971274232	-23.21303684993423	-1.256840814635819	-1.931947146800715	-0.7853372271332545	8.054605745086265	-0.501799038090379	2.436134159572653	-6.178494205141653	6.968104388619847	6.968104388619859	1.179610385621651	-0.0506707404446784	0.5988709714762378	-0.3431942328660701	-3.219793703182694e-08	8.945001396551339e-08	1.136540787106281e-07	3.41276394227132e-08	-1.007479856904982e-07	-3.516118037966569e-08	-4.756808822734599e-09
0.03	-0.03738347828302873	0.05572718172003399	0.919975779796195	0.3123475232152081	-0.2958896778960866	-0.3004376236302146	-0.3910017638760526	0.2531396434950597	0.2531396434950614	-0.1740272010794776	-0.1745232361734863	-0.0006075224831308305	0.000232704873703945	-0.03672719939617567	-0.06116095072612956	-0.02394841457079857	0.2454886891548388	-0.01614513139799889	0.07575920912119477	-0.196800503777959	0.2106919893895756	0.2106919893895758	0.03355012515038468	-0.000106089996546829	0.01442433419373276	-0.01268251892621043	0.04623172581985631	-0.04357076820896543	-0.01627487162866902	-0.216090630741256	0.149039322699845	0.003051998532925294	0.02582352154792518	4.227667177956227	-4.845221601133669	3.493016466861761	17.48666008998827	-636.0066462581839	-83.39049366430743	-23.23283883732303	-1.129397453572765	-1.877165381881513	-0.7629323597473114	7.66216940701324	-0.5063275141157044	2.410852408051941	-6.064980904564013	6.665456450662265	6.665456450662317	1.05199490679665	0.01988381139755695	0.53400467583246	-0.3702034183396126	-4.522643328933029e-08	7.974963026386735e-08	1.542006053592716e-07	4.587620539747909e-08	-1.583371171088594e-07	-5.753650644200523e-08	-1.018761549504824e-08
0.04	-0.03780788267458132	0.0550224494948819	0.9196979890798126	0.3151848004945225	-0.2960760783724694	-0.2995610879513061	-0.3932681970509973	0.255578826337063	0.2555788263370631	-0.1736388657414073	-0.1745242547809543	-0.0004362776309555819	8.786899164532706e-05	-0.04808058587414871	-0.07970312334089193	-0.03159888247716945	0.3216038692286345	-0.02112016470292815	0.09944702411012973	-0.2561504913906271	0.2768418706142547	0.2768418706142554	0.04402210585437191	-8.657590857467077e-05	0.01978563659831286	-0.01628196575900348	0.04034841905367798	-0.03775843621470591	-0.01550720896017931	-0.2106098643896283	0.1439400403939793	0.001265031568664617	0.03078388084211248	2.550880647816138	-3.846272273736327	3.414539898600796	17.97743268700195	-636.0712631169966	-80.43776683530628	-23.25962757763275	-1.169144991924299	-1.833046245892969	-0.7724879673598799	7.619093315507011	-0.4842437782160126	2.314938576375817	-5.775726420766196	6.604862050587338	6.604862050587389	1.066005595206647	-0.03726486521170809	0.5520792900625495	-0.340180617100156	-5.79358724274125e-08	7.029801351363684e-08	1.948239102444101e-07	5.713955080666126e-08	-2.139129476641545e-07	-7.950291501942579e-08	-1.564927851838562e-08
